#N canvas 988 168 1544 799 12;
#X obj 833 655 netsend -u -b;
#X msg 936 508 connect 127.0.0.1 8001;
#X obj 828 330 oscformat -f f play;
#X msg 827 289 1;
#X msg 994 287 1;
#X obj 995 328 oscformat -f f stop;
#X msg 936 529 disconnect;
#X obj 1154 328 oscformat -f f master volume;
#X obj 1154 292 nbx 5 17 -1e+37 1e+37 0 0 empty empty empty 0 -10 0 12 #fcfcfc #000000 #000000 0 256;
#X obj 1154 116 vsl 19 162 0 1 0 0 empty empty empty 0 -9 0 12 #fcfcfc #000000 #000000 0 1;
#X obj 65 161 pdchoco/slip_parse;
#X obj 60 192 oscparse;
#X obj 60 220 list trim;
#X obj 59 248 route bouton angle;
#X obj 65 123 comport;
#X obj 27 327 tgl 19 0 empty empty empty 0 -10 0 12 #fcfcfc #000000 #000000 0 1;
#X msg 61 68 devices;
#X msg 141 68 baud 115200 \, open 4;
#X obj 120 308 nbx 5 17 -1e+37 1e+37 0 0 empty empty empty 0 -10 0 12 #fcfcfc #000000 #000000 0 256;
#X obj 864 210 select 0 1;
#X obj 869 176 tgl 19 0 empty empty empty 0 -10 0 12 #fcfcfc #000000 #000000 0 1;
#X text 949 208 if;
#X msg 837 121 0;
#X msg 920 126 1;
#X obj 30 421 change;
#X text 83 421 change transforme le flux en evenement;
#X text 30 393 mode direct;
#X text 108 493 mode flip flop;
#X obj 108 515 pdchoco/stream_flip_flop;
#X obj 108 590 tgl 19 0 empty empty empty 0 -10 0 12 #fcfcfc #000000 #000000 0 1;
#X obj 30 455 tgl 19 0 empty empty empty 0 -10 0 12 #fcfcfc #000000 #000000 0 1;
#X text 136 537 le change trasnforme le flux en evenement;
#X obj 108 558 change;
#X obj 177 333 / 4095;
#X obj 175 359 nbx 5 17 -1e+37 1e+37 0 0 empty empty empty 0 -10 0 12 #fcfcfc #000000 #000000 0 256;
#X text 190 216 angle = volume master;
#X obj 259 271 pdchoco/scope 0 1;
#X obj 263 382 pdchoco/stream_smooth;
#X obj 467 245 pdchoco/stream_smooth 0.1.0.1;
#X obj 467 271 pdchoco/scope 0 1;
#X text 685 240 lisser les valeurs;
#X obj 1220 414 oscformat -f i vkb_midi 0 note 60;
#X msg 1222 379 127;
#X msg 1272 379 0;
#X obj 1229 616 oscformat -f i vkb_midi 0 midi cc 14;
#X obj 1231 584 nbx 5 17 -1e+37 1e+37 0 0 empty empty empty 0 -10 0 12 #fcfcfc #000000 #000000 0 256;
#X obj 1234 485 * 127;
#X obj 1233 524 / 4095;
#X obj 1232 559 nbx 5 17 -1e+37 1e+37 0 0 empty empty empty 0 -10 0 12 #fcfcfc #000000 #000000 0 256;
#X connect 1 0 0 0;
#X connect 2 0 0 0;
#X connect 3 0 2 0;
#X connect 4 0 5 0;
#X connect 5 0 0 0;
#X connect 6 0 0 0;
#X connect 7 0 0 0;
#X connect 8 0 7 0;
#X connect 9 0 8 0;
#X connect 10 0 11 0;
#X connect 11 0 12 0;
#X connect 12 0 13 0;
#X connect 13 0 15 0;
#X connect 13 1 18 0;
#X connect 14 0 10 0;
#X connect 15 0 28 0;
#X connect 15 0 24 0;
#X connect 16 0 14 0;
#X connect 17 0 14 0;
#X connect 18 0 33 0;
#X connect 18 0 46 0;
#X connect 19 0 3 0;
#X connect 19 1 4 0;
#X connect 20 0 19 0;
#X connect 22 0 20 0;
#X connect 23 0 20 0;
#X connect 24 0 30 0;
#X connect 28 0 32 0;
#X connect 29 0 20 0;
#X connect 32 0 29 0;
#X connect 33 0 34 0;
#X connect 34 0 9 0;
#X connect 34 0 36 0;
#X connect 34 0 37 0;
#X connect 34 0 38 0;
#X connect 38 0 39 0;
#X connect 41 0 0 0;
#X connect 42 0 41 0;
#X connect 43 0 41 0;
#X connect 44 0 0 0;
#X connect 45 0 44 0;
#X connect 46 0 47 0;
#X connect 47 0 48 0;
#X connect 48 0 45 0;
